<svg fill="none" xmlns="http://www.w3.org/2000/svg" viewBox="0 0 108 34">
  <path d="M17.644 1h72.981c9.206 0 16.644 7.32 16.644 16.322 0 9.027-7.464 16.321-16.644 16.321H17.644C8.438 33.643 1 26.323 1 17.321 1 8.32 8.464 1 17.644 1z" fill="#fff"/>
  <path d="M17.644 1.315h72.981c9.015 0 16.314 7.157 16.314 15.998 0 8.84-7.299 15.998-16.314 15.998H17.644c-9.016 0-16.315-7.157-16.315-15.998 0-8.84 7.3-15.998 16.315-15.998z" stroke="#535353" stroke-width=".74"/>
  <path d="M39.662 9.705v3.715h1.136c.606 0 1.066-.179 1.439-.527.372-.34.537-.8.537-1.344s-.182-1.003-.537-1.343c-.356-.34-.841-.501-1.44-.501h-1.135zm1.136.544c.416 0 .762.11.997.365.251.23.372.544.372.961 0 .391-.112.706-.372.96-.26.256-.581.366-.997.366h-.555v-2.644h.555v-.008zm3.901.34c-.4 0-.746.136-1.023.408-.278.272-.416.612-.416 1.028 0 .417.138.749.416 1.03.277.271.606.407 1.023.433.398 0 .745-.136 1.023-.408.277-.272.416-.613.416-1.029a1.39 1.39 0 00-.416-1.029c-.304-.297-.625-.433-1.023-.433zm0 .552c.234 0 .442.094.606.272.165.162.234.392.234.638a.993.993 0 01-.234.638.847.847 0 01-.606.246.883.883 0 01-.607-.246.897.897 0 01-.234-.638c0-.246.07-.476.234-.638a.806.806 0 01.607-.272zm4.863 1.293l-.841-1.845h-.208l-.815 1.87-.72-1.802h-.624l1.205 2.822h.208l.858-1.845.859 1.845h.208l1.187-2.822h-.624l-.693 1.777zm3.181-1.845c-.33 0-.607.11-.815.34v-.272h-.537v2.754h.58v-1.64c0-.392.252-.638.625-.638.347 0 .58.246.58.638v1.64h.581v-1.734c0-.663-.398-1.097-1.023-1.097l.01.009zm1.812-1.386v4.217h.58V9.203h-.58zm2.67 1.386c-.399 0-.746.136-1.023.408a1.377 1.377 0 00-.416 1.028c0 .417.139.749.416 1.03.277.271.607.407 1.023.433.398 0 .745-.136 1.023-.408.277-.272.416-.613.416-1.029a1.39 1.39 0 00-.416-1.029 1.34 1.34 0 00-1.023-.433zm.026.552a.81.81 0 01.607.272c.164.162.234.392.234.638a.993.993 0 01-.234.638.847.847 0 01-.607.246.883.883 0 01-.607-.246.897.897 0 01-.234-.638c0-.246.07-.476.234-.638.139-.178.347-.272.607-.272zm3.138-.552c-.486 0-.858.204-1.136.595l.33.34c.234-.272.485-.408.745-.408.373 0 .58.204.58.595v.178h-.762c-.607 0-.997.324-.997.8 0 .476.373.799.954.799.372 0 .65-.11.858-.366v.323h.537V11.78c0-.774-.442-1.182-1.092-1.182l-.017-.008zm-.182 2.44c-.278 0-.468-.136-.468-.366 0-.23.164-.34.485-.34h.694v.043a.697.697 0 01-.72.663h.009zm4.135-2.024c-.208-.272-.512-.408-.91-.408-.373 0-.694.136-.954.408-.251.272-.373.612-.373 1.029 0 .416.113.748.373 1.029.26.28.555.408.953.408.417 0 .746-.162.954-.46v.392h.537V9.186h-.58v1.82zm-.79 1.93a.883.883 0 01-.606-.246c-.165-.153-.234-.392-.234-.664 0-.271.07-.476.234-.637a.805.805 0 01.607-.247c.208 0 .416.068.58.23.165.162.235.391.235.663 0 .612-.373.91-.815.91v-.009zm5.02-2.346c-.399 0-.746.136-1.023.408a1.377 1.377 0 00-.416 1.028c0 .417.139.749.416 1.03.277.271.607.407 1.023.433.399 0 .745-.136 1.023-.408.277-.272.416-.613.416-1.029a1.39 1.39 0 00-.416-1.029c-.303-.297-.624-.433-1.023-.433zm0 .552a.81.81 0 01.607.272c.165.162.234.392.234.638a.993.993 0 01-.234.638.847.847 0 01-.607.246.883.883 0 01-.607-.246.897.897 0 01-.234-.638c0-.246.07-.476.234-.638a.807.807 0 01.607-.272zm3.441-.552c-.329 0-.606.11-.814.34v-.272h-.538v2.754h.581v-1.64c0-.392.251-.638.624-.638.347 0 .58.246.58.638v1.64h.582v-1.734c0-.663-.373-1.097-1.023-1.097l.008.009zm4.621 2.346c-.347 0-.538-.11-.538-.476v-1.3h.815v-.502h-.815v-.731h-.58v.73h-.443v.502h.443v1.344c0 .637.372.96.996.96.14 0 .304-.025.486-.068v-.501c-.182.042-.303.042-.373.042h.009zm2.306-2.346a1 1 0 00-.79.34V9.195h-.58v4.216h.58v-1.64c0-.392.252-.638.625-.638.347 0 .58.246.58.638v1.64h.582v-1.734c0-.638-.373-1.097-.997-1.097v.009zm4.3 1.275a1.26 1.26 0 00-.347-.91 1.177 1.177 0 00-.885-.365c-.398 0-.72.136-.996.433-.278.272-.4.612-.4 1.029 0 .416.14.748.417 1.029.277.272.624.408 1.049.408.424 0 .763-.136 1.066-.46l-.277-.407a1.1 1.1 0 01-.79.323c-.467 0-.814-.272-.883-.732h2.02c0-.11.025-.229.025-.34v-.008zm-1.284-.774c.4 0 .694.272.694.68h-1.465c.07-.408.373-.68.763-.68h.008zM45.773 23.331l-3.025-7.09h-.373l-2.999 7.09h1.162l.485-1.164h3.069l.485 1.164h1.196zm-4.351-2.116l1.135-2.899 1.119 2.899h-2.254zm7.932-3.197c-.746 0-1.396.324-1.769.868v-.731h-1.023v7.09h1.093V22.71c.398.502.98.731 1.699.731.72 0 1.326-.247 1.785-.773.468-.528.694-1.165.694-1.939 0-.773-.234-1.41-.694-1.938-.468-.527-1.066-.774-1.785-.774zm-.191 4.404c-.416 0-.789-.136-1.092-.434-.304-.297-.442-.705-.442-1.275 0-1.113.693-1.683 1.534-1.683.442 0 .815.162 1.118.476.304.323.442.731.442 1.233 0 .501-.138.892-.442 1.207a1.467 1.467 0 01-1.118.476zm6.484-4.404c-.745 0-1.396.324-1.768.868v-.731h-1.023v7.09h1.092V22.71c.399.502.98.731 1.7.731.719 0 1.325-.247 1.785-.773.468-.528.693-1.165.693-1.939 0-.773-.234-1.41-.693-1.938-.468-.527-1.066-.774-1.786-.774zm-.165 4.404c-.416 0-.788-.136-1.092-.434-.303-.297-.442-.705-.442-1.275 0-1.113.694-1.683 1.534-1.683a1.5 1.5 0 011.119.476c.303.323.442.731.442 1.233 0 .501-.139.892-.442 1.207-.33.323-.676.476-1.119.476zm8.53-6.18c-.606 0-1.118.178-1.534.527-.416.34-.624.799-.624 1.369 0 .892.58 1.462 1.578 1.938l.745.365c.72.34.997.544.997 1.046 0 .595-.468.978-1.188.978s-1.274-.366-1.785-1.114l-.763.595c.537.935 1.465 1.505 2.583 1.505.65 0 1.205-.179 1.63-.544.442-.366.65-.868.65-1.463 0-.91-.538-1.462-1.63-1.98l-.763-.366c-.693-.34-.953-.527-.953-1.003 0-.544.468-.841 1.023-.841.554 0 1.066.297 1.439.841l.763-.595c-.4-.748-1.206-1.25-2.159-1.25l-.009-.008zm5.722 6.205c-.65 0-.997-.23-.997-.892V19.09h1.508v-.96h-1.508v-1.37h-1.093v1.37h-.84v.96h.84v2.533c0 1.207.694 1.802 1.856 1.802.25 0 .554-.043.91-.11v-.936a5.291 5.291 0 01-.676.068zm3.814-4.429c-.746 0-1.396.273-1.907.774-.512.527-.763 1.165-.763 1.913s.251 1.41.763 1.913c.511.527 1.135.773 1.907.799.745 0 1.37-.273 1.907-.774.537-.527.789-1.165.789-1.938 0-.774-.278-1.411-.79-1.913a2.658 2.658 0 00-1.906-.774zm.017 1.03c.442 0 .815.16 1.118.5.304.324.468.706.468 1.208 0 .501-.164.867-.468 1.207a1.467 1.467 0 01-1.118.476c-.468 0-.84-.162-1.118-.476-.303-.323-.442-.731-.442-1.207 0-.476.139-.893.442-1.207.277-.34.65-.502 1.118-.502zm6.207-.961c-.624 0-1.118.246-1.491.73v-.68h-1.023v5.177h1.092V20.56c0-.91.624-1.436 1.491-1.436h.33v-.978a1.62 1.62 0 00-.4-.042v-.017zm5.738 2.303c0-.68-.234-1.25-.676-1.708-.442-.46-.996-.68-1.673-.68-.745 0-1.37.272-1.855.799-.511.527-.745 1.164-.745 1.912s.251 1.411.763 1.938c.511.527 1.161.774 1.95.774.789 0 1.439-.272 2.02-.841l-.512-.749c-.468.408-.953.612-1.49.612-.885 0-1.509-.501-1.648-1.368h3.788c.026-.23.07-.46.07-.68l.008-.009zm-2.392-1.436c.746 0 1.3.501 1.3 1.275h-2.765c.165-.774.745-1.275 1.465-1.275zM34.34 16.862c-.026-1.98 1.768-2.94 1.837-2.983-.997-1.343-2.583-1.53-3.112-1.547-1.3-.137-2.583.73-3.25.73-.668 0-1.717-.705-2.81-.68-1.42.026-2.764.774-3.484 1.964-1.508 2.397-.399 5.925 1.066 7.863.72.961 1.56 2.007 2.67 1.981 1.093-.042 1.491-.638 2.792-.638 1.3 0 1.673.638 2.808.613 1.162-.026 1.907-.961 2.6-1.913.842-1.097 1.162-2.168 1.188-2.21-.043-.026-2.28-.8-2.297-3.171l-.008-.009zm-2.142-5.789c.581-.663.98-1.572.859-2.507-.841.025-1.908.527-2.514 1.181-.538.57-1.023 1.53-.884 2.415.953.067 1.933-.46 2.53-1.097l.01.008z" fill="#404040"/>
</svg>
