<svg fill="none" xmlns="http://www.w3.org/2000/svg" viewBox="0 0 14 9">
  <path d="M5.298 1.354v.677h7.736c-.01-.218-.034-.494-.117-.677" fill="#EC1C24"/>
  <path d="M12.553.677H5.298v.677h7.62a2.094 2.094 0 00-.365-.677z" fill="#E6E7E8"/>
  <path d="M11.004 0H5.298v.677h7.255c-.34-.419-.9-.677-1.55-.677z" fill="#EC1C24"/>
  <path d="M13.034 2.03H5.298v.678h7.744v-.451c0-.04-.003-.08-.004-.12l-.004-.106z" fill="#E6E7E8"/>
  <path d="M5.298 3.385h7.744v-.677H5.298v.677z" fill="#EC1C24"/>
  <path d="M5.298 4.062h7.744v-.677H5.298v.677z" fill="#E6E7E8"/>
  <path d="M5.298 4.062h7.744v.677H5.298v-.677z" fill="#EC1C24"/>
  <path d="M0 4.739v.677h13.042v-.677H0z" fill="#E6E7E8"/>
  <path d="M0 5.416h13.042v.677H0v-.677z" fill="#EC1C24"/>
  <path d="M.001 6.509s-.002.164.003.26h13.034c.005-.098.003-.26.003-.26v-.416H0l.001.416z" fill="#E6E7E8"/>
  <path d="M2.038 8.813h8.966c.65 0 1.191-.233 1.56-.69H.475c.382.467.933.69 1.563.69" fill="#EC1C24"/>
  <path d="M.476 8.124h12.09a1.99 1.99 0 00.354-.677H.123c.075.245.195.474.354.677" fill="#E6E7E8"/>
  <path d="M.122 7.447H12.92c.067-.22.107-.448.118-.677H.005c.02.231.039.406.118.677z" fill="#EC1C24"/>
  <path d="M5.298 0h-3.26C.688 0 0 .986 0 2.203V4.74h5.298V0z" fill="#176496"/>
  <path d="M.57 1.197l.11-.084.112.084-.043-.135.11-.082H.723L.68.845.638.98H.503l.11.082-.043.135zm.732 0l.111-.084.11.084-.042-.135.11-.082h-.136L1.413.845 1.371.98h-.136l.11.082-.043.135zm.808 0l.111-.084.11.084-.042-.135.11-.082h-.135L2.22.845 2.179.98h-.135l.11.082-.044.135zm.802 0l.111-.084.11.084-.042-.135.11-.082h-.136L3.023.845 2.981.98h-.136l.11.082-.043.135zm.805 0l.111-.084.11.084-.042-.135.11-.082H3.87L3.828.845 3.786.98H3.65l.11.082-.043.135zM.96 1.548l.11-.083.111.083-.042-.134.11-.082h-.137l-.042-.135-.041.135H.892l.11.082-.042.134zm.732 0l.111-.083.11.083-.042-.134.11-.082h-.137l-.04-.135-.043.135h-.136l.11.082-.043.134zm.808 0l.11-.083.111.083-.042-.134.11-.082h-.136l-.042-.135-.042.135h-.136l.11.082-.043.134zm.802 0l.11-.083.112.083-.044-.134.11-.082h-.135l-.042-.135-.042.135h-.136l.11.082-.043.134zm.806 0l.11-.083.11.083-.043-.134.11-.082H4.26l-.042-.135-.042.135H4.04l.11.082-.042.134zm.454-.351l.11-.084.111.084-.043-.135.11-.082h-.135L4.672.845 4.63.98h-.137l.112.082-.043.135zM.559 4.01l.111-.083.11.083-.042-.134.11-.082H.712L.67 3.66l-.042.135H.492l.11.082-.043.134zm.733 0l.11-.083.111.083-.043-.134.11-.082h-.135l-.043-.135-.042.135h-.135l.11.082-.043.134zm.808 0l.11-.083.111.083-.043-.134.11-.082h-.136L2.21 3.66l-.042.135h-.136l.11.082-.042.134zm.802 0l.11-.083.111.083-.042-.134.11-.082h-.137l-.042-.135-.042.135h-.136l.11.082-.042.134zm.805 0l.11-.083.111.083-.042-.134.11-.082h-.137l-.042-.135-.042.135H3.64l.11.082-.042.134zm.844 0l.11-.083.111.083-.043-.134.11-.082h-.136l-.042-.135-.042.135h-.136l.11.082-.042.134zM.57 1.9l.11-.083.112.083-.043-.134.11-.083H.723L.68 1.549l-.042.136H.503l.11.082L.57 1.9zm.732 0l.111-.083.11.083-.042-.134.11-.083h-.136l-.042-.135-.042.136h-.136l.11.082-.043.134zm.808 0l.111-.083.11.083-.042-.134.11-.083h-.135l-.043-.135-.042.136h-.135l.11.082-.044.134zm.802 0l.111-.083.11.083-.042-.134.11-.083h-.136l-.042-.135-.042.136h-.136l.11.082-.043.134zm.805 0l.111-.083.11.083-.042-.134.11-.083H3.87l-.042-.135-.042.136H3.65l.11.082-.043.134zM.96 2.252l.11-.083.111.083-.042-.134.11-.083h-.137L1.07 1.9l-.041.135H.892l.11.083-.042.134zm.732 0l.111-.083.11.083-.042-.134.11-.083h-.137l-.04-.135-.043.135h-.136l.11.083-.043.134zm.808 0l.11-.083.111.083-.042-.134.11-.083h-.136L2.611 1.9l-.042.135h-.136l.11.083-.043.134zm.802 0l.11-.083.112.083-.044-.134.11-.083h-.135L3.413 1.9l-.042.135h-.136l.11.083-.043.134zm.806 0l.11-.083.11.083-.043-.134.11-.083H4.26L4.218 1.9l-.042.135H4.04l.11.083-.042.134zm.454-.352l.11-.083.111.083-.043-.134.11-.083h-.135l-.043-.135-.042.136h-.137l.112.082-.043.134zm-4.003.704L.67 2.52l.11.084-.042-.134.11-.083H.712L.67 2.252l-.042.135H.492l.11.083-.043.134zm.733 0l.11-.084.111.084-.043-.134.11-.083h-.135l-.043-.135-.042.135h-.135l.11.083-.043.134zm.808 0l.11-.084.111.084-.043-.134.11-.083h-.136l-.042-.135-.042.135h-.136l.11.083-.042.134zm.802 0l.11-.084.111.084-.042-.134.11-.083h-.137l-.042-.135-.042.135h-.136l.11.083-.042.134zm.805 0l.11-.084.111.084-.042-.134.11-.083h-.137l-.042-.135-.042.135H3.64l.11.083-.042.134zm-2.758.351l.11-.083.111.083-.042-.133.11-.083H1.1l-.042-.135-.041.135H.882l.11.083-.043.133zm.733 0l.11-.083.11.083-.042-.133.11-.083h-.136l-.042-.135-.042.135h-.136l.11.083-.042.133zm.808 0l.11-.083.11.083-.043-.133.111-.083h-.136L2.6 2.604l-.042.135h-.136l.11.083-.042.133zm.8 0l.112-.083.11.083-.042-.133.11-.083h-.136l-.042-.135-.042.135h-.136l.11.083-.043.133zm.806 0l.111-.083.11.083-.042-.133.11-.083H4.25l-.042-.135-.042.135H4.03l.11.083-.043.133zm.455-.351l.11-.084.111.084-.043-.134.11-.083h-.136l-.042-.135-.042.135h-.136l.11.083-.042.134zm-3.992.703l.111-.082.11.082-.042-.134.11-.083H.712L.67 2.956l-.042.136H.492l.11.082-.043.134zm.733 0l.11-.082.111.082-.043-.134.11-.083h-.135l-.043-.135-.042.136h-.135l.11.082-.043.134zm.808 0l.11-.082.111.082-.043-.134.11-.083h-.136l-.042-.135-.042.136h-.136l.11.082-.042.134zm.802 0l.11-.082.111.082-.042-.134.11-.083h-.137l-.042-.135-.042.136h-.136l.11.082-.042.134zm.805 0l.11-.082.111.082-.042-.134.11-.083h-.137l-.042-.135-.042.136H3.64l.11.082-.042.134zM.949 3.66l.11-.084.111.084-.042-.134.11-.082H1.1l-.042-.136-.041.136H.882l.11.082-.043.134zm.733 0l.11-.084.11.084-.042-.134.11-.082h-.136l-.042-.136-.042.136h-.136l.11.082-.042.134zm.808 0l.11-.084.11.084-.043-.134.111-.082h-.136L2.6 3.307l-.042.136h-.136l.11.082-.042.134zm.8 0l.112-.084.11.084-.042-.134.11-.082h-.136l-.042-.136-.042.136h-.136l.11.082-.043.134zm.806 0l.111-.084.11.084-.042-.134.11-.082H4.25l-.042-.136-.042.136H4.03l.11.082-.043.134zm.455-.352l.11-.082.111.082-.043-.134.11-.083h-.136l-.042-.135-.042.136h-.136l.11.082-.042.134z" fill="#fff"/>
</svg>
