<svg fill="none" xmlns="http://www.w3.org/2000/svg" viewBox="0 0 108 34">
  <path d="M17.644 1h72.99c9.206 0 16.643 7.32 16.643 16.322 0 9.027-7.463 16.321-16.643 16.321h-72.99C8.438 33.643 1 26.323 1 17.321 1 8.295 8.464 1 17.644 1z" fill="#fff"/>
  <path d="M17.644 1.298h72.99c9.015 0 16.314 7.157 16.314 15.998 0 8.84-7.299 15.998-16.314 15.998h-72.99c-9.016.009-16.315-7.149-16.315-15.998 0-8.815 7.3-15.998 16.315-15.998z" stroke="#535353" stroke-width=".74"/>
  <path d="M28.263 16.982L20.34 9.713a1.59 1.59 0 00-.139.612v13.38c0 .247.07.434.139.613l7.923-7.337zm.937 0l2.652 2.414 2.904-1.505c.927-.476.927-1.275 0-1.751l-2.974-1.573-2.583 2.415zm-.469-.434l2.444-2.304-9.318-4.828c-.399-.179-.79-.247-1.05-.11l7.924 7.25v-.008zm0 .842l-7.923 7.319c.251.11.65.068 1.118-.11l9.37-4.83-2.556-2.371-.009-.008zm12.604-7.184c-.537 0-.997.179-1.37.544-.372.366-.554.825-.554 1.369s.182 1.003.554 1.369a1.9 1.9 0 001.37.544c.746 0 1.37-.391 1.7-.978v-1.046h-1.717v.528h1.118v.408c-.251.39-.607.57-1.092.57a1.34 1.34 0 01-.98-.392c-.251-.272-.372-.595-.372-1.003 0-.391.112-.731.372-.978a1.27 1.27 0 01.954-.39c.468 0 .815.203 1.092.594l.416-.365c-.33-.502-.84-.774-1.49-.774zm2.436.068v3.715h2.462v-.527h-1.881v-1.181h1.37v-.527h-1.37v-.961h1.812v-.527H43.77v.008zm2.765 0v.527h1.231v3.188h.581v-3.188h1.231v-.527h-3.043zm4.881 0v3.715h.58v-3.715h-.58zm1.144 0v.527h1.231v3.188h.58v-3.188h1.232v-.527H52.56zm6.553-.068c-.537 0-.996.179-1.37.544-.372.366-.554.825-.554 1.369s.182 1.003.555 1.369c.373.365.815.544 1.37.544.554 0 .98-.179 1.352-.544.373-.366.555-.825.555-1.369s-.182-1.003-.555-1.369c-.347-.365-.815-.544-1.352-.544zm0 .553c.373 0 .694.136.928.39.252.247.373.596.373.979 0 .408-.113.73-.373.977a1.283 1.283 0 01-.928.391c-.372 0-.693-.136-.927-.39a1.382 1.382 0 01-.373-.979c0-.382.113-.73.373-.977a1.28 1.28 0 01.928-.391zm5.046 2.023l-2.21-2.576h-.209v3.783h.58v-2.508l2.229 2.576h.208v-3.783h-.581v2.508h-.026.009zm-21.386 3.97c-.953 0-1.742.323-2.392.978-.65.637-.98 1.436-.98 2.397 0 .96.33 1.75.98 2.397.65.646 1.439.96 2.392.96 1.274 0 2.419-.68 2.974-1.708v-1.828h-3v.935h1.977v.706c-.443.663-1.067.978-1.907.978-.694 0-1.258-.23-1.7-.68-.442-.451-.65-1.046-.65-1.752 0-.705.208-1.25.624-1.708.416-.46.98-.68 1.648-.68.788 0 1.438.34 1.907 1.028l.745-.612c-.607-.935-1.49-1.394-2.627-1.394l.01-.017zm5.904 1.666c-.694 0-1.3.247-1.786.731-.486.485-.72 1.097-.72 1.802 0 .706.234 1.326.72 1.802a2.444 2.444 0 001.785.732c.72 0 1.275-.247 1.786-.732.486-.501.746-1.096.746-1.802 0-.705-.252-1.326-.746-1.802a2.501 2.501 0 00-1.785-.73zm.026.952c.416 0 .762.162 1.048.46.286.297.416.662.416 1.113 0 .45-.138.824-.416 1.113-.277.298-.624.434-1.049.434-.424 0-.762-.136-1.048-.434-.287-.297-.416-.68-.416-1.113 0-.46.138-.825.416-1.114.251-.323.606-.459 1.048-.459zm5.391-.952c-.693 0-1.3.247-1.785.731-.486.485-.72 1.097-.72 1.802 0 .706.234 1.326.72 1.802a2.444 2.444 0 001.785.732c.72 0 1.275-.247 1.786-.732.486-.501.746-1.096.746-1.802 0-.705-.252-1.326-.746-1.802a2.501 2.501 0 00-1.786-.73zm.018.952c.416 0 .763.162 1.049.46.286.297.416.662.416 1.113 0 .45-.139.824-.416 1.113-.278.298-.624.434-1.05.434-.424 0-.762-.136-1.048-.434-.286-.297-.416-.68-.416-1.113 0-.46.138-.825.416-1.114.251-.323.607-.459 1.049-.459zm6.926-.153c-.373-.527-.928-.799-1.673-.799-.676 0-1.205.23-1.647.68-.442.45-.65 1.029-.65 1.751 0 .723.234 1.3.65 1.752.442.459.98.68 1.647.68s1.205-.23 1.604-.68v.34c0 .91-.555 1.394-1.422 1.394-.555 0-1.118-.23-1.673-.68l-.555.73c.624.613 1.396.91 2.28.91 1.439 0 2.375-.867 2.375-2.397v-4.327h-.927v.638l-.009.008zm-1.508 3.145a1.49 1.49 0 01-1.05-.408 1.548 1.548 0 01-.415-1.096c0-.434.138-.8.416-1.097.277-.272.624-.408 1.049-.408.788 0 1.439.502 1.439 1.48 0 .5-.14.866-.416 1.138-.304.247-.625.391-1.023.391zm3.415-6.384v7.388h1.023v-7.388h-1.023zm6.371 4.65c0-.637-.207-1.164-.624-1.598-.416-.433-.927-.637-1.56-.637-.694 0-1.274.246-1.742.73-.469.485-.694 1.097-.694 1.803 0 .705.234 1.326.72 1.802.485.476 1.092.731 1.837.731.746 0 1.353-.247 1.907-.773l-.485-.706c-.416.39-.884.57-1.396.57-.814 0-1.421-.477-1.56-1.276h3.537a3.21 3.21 0 00.07-.637l-.01-.009zm-2.227-1.326c.693 0 1.205.46 1.205 1.182H65.71c.165-.731.694-1.182 1.37-1.182h.009zm5.2-2.44v6.495h1.024v-2.508h1.3c.65 0 1.162-.178 1.578-.544.399-.365.607-.867.607-1.462s-.209-1.071-.607-1.436c-.399-.366-.928-.545-1.578-.545h-2.323zm2.324.919c.72 0 1.136.433 1.136 1.07 0 .638-.416 1.072-1.136 1.072H73.34V17.78h1.274zm2.774-1.803v7.388h1.023v-7.388h-1.023zm3.832 2.44c-.859 0-1.535.34-2.003 1.029l.58.612c.4-.476.842-.731 1.327-.731.65 0 1.023.365 1.023 1.028v.323h-1.352c-1.066 0-1.743.544-1.743 1.394 0 .85.65 1.395 1.647 1.395.65 0 1.162-.23 1.509-.663v.544h.953v-2.916c0-1.275-.763-2.006-1.95-2.006l.009-.009zm-.304 4.259c-.485 0-.84-.23-.84-.638 0-.39.277-.595.84-.595h1.205v.094c.026.663-.537 1.139-1.205 1.139zm5.089-.612l-1.37-3.536h-1.092l1.907 4.624-.182.46c-.234.543-.555.705-1.05.705-.068 0-.25 0-.554-.043v.867c.251.068.538.094.789.094.815 0 1.352-.408 1.742-1.326l2.324-5.381h-1.093l-1.421 3.536z" fill="#404040"/>
</svg>
