<svg fill="none" xmlns="http://www.w3.org/2000/svg" viewBox="0 0 128 136">
  <path fill-rule="evenodd" clip-rule="evenodd" d="M8.083 99.22c-1.532-.618-2.754-1.858-3.4-3.45a6.821 6.821 0 01-.497-2.51 7.02 7.02 0 01.455-2.545L9.8 77.108 1.324 65.88C.306 64.525-.154 62.787.046 61.044c.2-1.742 1.042-3.347 2.343-4.462l10.838-9.242-1.91-14.312a6.996 6.996 0 011.194-4.918c.995-1.422 2.475-2.382 4.113-2.668l13.582-2.368 5.16-13.62c.62-1.637 1.824-2.961 3.347-3.683a5.935 5.935 0 014.772-.164l12.75 5.13L67.082 1.5A6.315 6.315 0 0169.254.285a5.953 5.953 0 012.428-.253c1.642.17 3.136 1.027 4.154 2.379l8.472 11.237 13.583-2.369a5.884 5.884 0 014.622 1.145c1.321 1.019 2.193 2.56 2.423 4.287l1.912 14.318 12.757 5.129c1.533.617 2.757 1.858 3.402 3.452a6.938 6.938 0 01.04 5.045l-5.161 13.607 8.472 11.237a6.54 6.54 0 011.099 2.27 6.9 6.9 0 01.184 2.562 7.01 7.01 0 01-.761 2.466 6.744 6.744 0 01-1.588 1.992l-10.838 9.243 1.911 14.312a6.993 6.993 0 01-1.194 4.917c-.996 1.423-2.475 2.383-4.113 2.668l-13.583 2.368-5.152 13.619c-.621 1.637-1.825 2.962-3.348 3.683a5.93 5.93 0 01-4.773.164l-12.757-5.128-10.826 9.234a6.26 6.26 0 01-2.977 1.418 5.937 5.937 0 01-3.201-.343 6.116 6.116 0 01-2.583-1.979l-8.479-11.242-13.582 2.368a5.883 5.883 0 01-4.622-1.144c-1.322-1.019-2.193-2.561-2.424-4.287l-1.911-14.312-12.757-5.129z" fill="url(#2YSUIMsbNLMQa)"/>
  <defs>
    <linearGradient id="2YSUIMsbNLMQa" x1="55.086" y1="2.658" x2="77.469" y2="131.869" gradientUnits="userSpaceOnUse">
      <stop stop-color="#BC2122"/>
      <stop offset="1" stop-color="#EC800F"/>
    </linearGradient>
  </defs>
</svg>
